# xmcd CD database file
#
# Track frame offsets:
#	150
#	30693
#	91135
#	113591
#	146711
#	154106
#	182181
#	198728
#	207072
#	234032
#	252812
#	262558
#	293136
#	325815
#
# Disc length: 4421 seconds
#
# Revision: 0
# Processed by: cddbd v1.5.1PL2 Copyright (c) Steve Scherf et al.
# Submitted via: CDex 1.51
#
DISCID=b611430e
DTITLE=wonderland falling yesterday - enchanted landscape escape
DYEAR=2002
DGENRE=Electronica
TTITLE0=wonderland falling today
TTITLE1=yesterdays light circus
TTITLE2=breath cannon escape wall
TTITLE3=old winter ferris wheel
TTITLE4=lover teresa dead field
TTITLE5=falling marble chair
TTITLE6=sheep creep
TTITLE7=shine hill in the palm
TTITLE8=sleeping under the raibow
TTITLE9=purple ripple
TTITLE10=snow crystal lake
TTITLE11=rain prayer
TTITLE12=grandfather clock heart
TTITLE13=good morning hellwalker
EXTD=YEAR: 2002
EXTT0=
EXTT1=
EXTT2=
EXTT3=
EXTT4=
EXTT5=
EXTT6=
EXTT7=
EXTT8=
EXTT9=
EXTT10=
EXTT11=
EXTT12=
EXTT13=
PLAYORDER=
